<?xml version="1.0" encoding="utf-8"?>
<svg xmlns="http://www.w3.org/2000/svg" >

    <symbol viewBox="0 0 32 32" fill="none" id="heart">
        <path d="M29.8667 14.9333V19.2H27.7333V21.3333H25.6V19.2H23.4667V21.3333H21.3333V23.4667H19.2V25.6H17.0667V27.7333H19.2V29.8667H17.0667V32H14.9333V29.8667H12.8V27.7333H10.6667V25.6H8.53333V23.4667H6.4V21.3333H4.26667V19.2H2.13333V14.9333H0V4.26667H2.13333V2.13333H4.26667V0H10.6667V2.13333H12.8V4.26667H14.9333V6.4H17.0667V4.26667H19.2V2.13333H21.3333V0H27.7333V2.13333H29.8667V4.26667H32V14.9333H29.8667ZM8.53333 2.13333H6.4V4.26667H4.26667V6.4H2.13333V8.53333H4.26667V6.4H6.4V4.26667H8.53333V2.13333ZM25.6 2.13333H23.4667V4.26667H21.3333V6.4H19.2V8.53333H21.3333V6.4H23.4667V4.26667H25.6V2.13333ZM21.3333 25.6V27.7333H19.2V25.6H21.3333ZM23.4667 23.4667V25.6H21.3333V23.4667H23.4667ZM25.6 21.3333V23.4667H23.4667V21.3333H25.6Z" fill="#FF1BE8"/>
    </symbol>
    <symbol viewBox="0 0 420 105" fill="none" id="connect" style="opacity: 0.5">
        <g style="mix-blend-mode:overlay" filter="url(#filter0_dd_135_2021)">
        <rect x="20" y="14" width="372" height="57" fill="white"/>
        <rect x="18" y="12" width="376" height="61" stroke="#FF1BE8" stroke-width="4"/>
        </g>
        <path d="M67 49V52H64V55H52V52H49V49H46V37H49V34H52V31H64V34H67V37H61V34H55V37H52V49H55V52H61V49H67ZM84.88 34H79.12V37H76.12V49H79.12V52H84.88V49H87.88V37H84.88V34ZM88 31V34H91V37H94V49H91V52H88V55H76V52H73V49H70V37H73V34H76V31H88ZM118 31V55H112V52H109V49H106V43H103V55H97V31H103V34H106V37H109V43H112V31H118ZM142 31V55H136V52H133V49H130V43H127V55H121V31H127V34H130V37H133V43H136V31H142ZM151 40H163V43H151V52H163V55H145V31H163V34H151V40ZM187 49V52H184V55H172V52H169V49H166V37H169V34H172V31H184V34H187V37H181V34H175V37H172V49H175V52H181V49H187ZM202 34V55H196V34H190V31H208V34H202ZM256 31V37H253V49H250V55H244V49H241V43H235V49H232V55H226V49H223V37H220V31H226V37H229V43H232V34H235V31H241V34H244V43H247V37H250V31H256ZM274 49H262V55H256V49H259V43H262V34H265V31H271V34H274V43H277V49H280V55H274V49ZM265.12 46H270.88V43H265.12V46ZM289 52H301V55H283V31H289V52ZM310 52H322V55H304V31H310V52ZM331 40H343V43H331V52H343V55H325V31H343V34H331V40ZM358 34V55H352V34H346V31H364V34H358Z" fill="#303030"/>
        <defs>
        <filter id="filter0_dd_135_2021" x="0" y="0" width="420" height="105" filterUnits="userSpaceOnUse" color-interpolation-filters="sRGB">
        <feFlood flood-opacity="0" result="BackgroundImageFix"/>
        <feColorMatrix in="SourceAlpha" type="matrix" values="0 0 0 0 0 0 0 0 0 0 0 0 0 0 0 0 0 0 127 0" result="hardAlpha"/>
        <feOffset dy="4"/>
        <feGaussianBlur stdDeviation="5"/>
        <feComposite in2="hardAlpha" operator="out"/>
        <feColorMatrix type="matrix" values="0 0 0 0 1 0 0 0 0 1 0 0 0 0 1 0 0 0 0.82 0"/>
        <feBlend mode="normal" in2="BackgroundImageFix" result="effect1_dropShadow_135_2021"/>
        <feColorMatrix in="SourceAlpha" type="matrix" values="0 0 0 0 0 0 0 0 0 0 0 0 0 0 0 0 0 0 127 0" result="hardAlpha"/>
        <feOffset dx="4" dy="10"/>
        <feGaussianBlur stdDeviation="10"/>
        <feComposite in2="hardAlpha" operator="out"/>
        <feColorMatrix type="matrix" values="0 0 0 0 1 0 0 0 0 0.105833 0 0 0 0 0.910583 0 0 0 1 0"/>
        <feBlend mode="normal" in2="effect1_dropShadow_135_2021" result="effect2_dropShadow_135_2021"/>
        <feBlend mode="normal" in="SourceGraphic" in2="effect2_dropShadow_135_2021" result="shape"/>
        </filter>
        </defs>
    </symbol>
    <symbol viewBox="0 0 40 40" fill="none" id="down">
        <path d="M5 5H35V35H5V5ZM31.6667 31.6667V8.33333H8.33333V31.6667H31.6667ZM18.3333 11.6667H21.6667V21.6667H25V25H21.6667V28.3333H18.3333V25H15V21.6667H18.3333V11.6667ZM15 18.3333V21.6667H11.6667V18.3333H15ZM28.3333 18.3333H25V21.6667H28.3333V18.3333Z" fill="white" fill-opacity="0.8"/>
    </symbol>
    <symbol viewBox="0 0 40 40" fill="none" id="up">
        <path d="M5 35H35V5H5V35ZM31.6667 8.33333V31.6667H8.33333V8.33333H31.6667ZM18.3333 28.3333H21.6667V18.3333H25V15H21.6667V11.6667H18.3333V15H15V18.3333H18.3333V28.3333ZM15 21.6667V18.3333H11.6667V21.6667H15ZM28.3333 21.6667H25V18.3333H28.3333V21.6667Z" fill="white" fill-opacity="0.8"/>
    </symbol>
    <symbol viewBox="0 0 282 105" fill="none" id="mint" style="opacity: 0.5">
        <g style="mix-blend-mode:overlay" filter="url(#filter0_dd_76_2)">
        <rect x="20" y="14" width="234" height="57" fill="white"/>
        <rect x="18" y="12" width="238" height="61" stroke="#FF1BE8" stroke-width="4"/>
        </g>
        <path d="M120 31V55H114V49H111V55H105V49H102V55H96V31H102V34H105V40H111V34H114V31H120ZM129 31V55H123V31H129ZM153 31V55H147V52H144V49H141V43H138V55H132V31H138V34H141V37H144V43H147V31H153ZM168 34V55H162V34H156V31H174V34H168Z" fill="black" fill-opacity="0.8"/>
        <defs>
        <filter id="filter0_dd_76_2" x="0" y="0" width="282" height="105" filterUnits="userSpaceOnUse" color-interpolation-filters="sRGB">
        <feFlood flood-opacity="0" result="BackgroundImageFix"/>
        <feColorMatrix in="SourceAlpha" type="matrix" values="0 0 0 0 0 0 0 0 0 0 0 0 0 0 0 0 0 0 127 0" result="hardAlpha"/>
        <feOffset dy="4"/>
        <feGaussianBlur stdDeviation="5"/>
        <feComposite in2="hardAlpha" operator="out"/>
        <feColorMatrix type="matrix" values="0 0 0 0 1 0 0 0 0 1 0 0 0 0 1 0 0 0 0.82 0"/>
        <feBlend mode="normal" in2="BackgroundImageFix" result="effect1_dropShadow_76_2"/>
        <feColorMatrix in="SourceAlpha" type="matrix" values="0 0 0 0 0 0 0 0 0 0 0 0 0 0 0 0 0 0 127 0" result="hardAlpha"/>
        <feOffset dx="4" dy="10"/>
        <feGaussianBlur stdDeviation="10"/>
        <feComposite in2="hardAlpha" operator="out"/>
        <feColorMatrix type="matrix" values="0 0 0 0 1 0 0 0 0 0.105833 0 0 0 0 0.910583 0 0 0 1 0"/>
        <feBlend mode="normal" in2="effect1_dropShadow_76_2" result="effect2_dropShadow_76_2"/>
        <feBlend mode="normal" in="SourceGraphic" in2="effect2_dropShadow_76_2" result="shape"/>
        </filter>
        </defs>
    </symbol>
    <symbol viewBox="0 0 90 90" fill="none" id="opensea">
        <path d="M90 45C90 69.8514 69.8514 90 45 90C20.1486 90 0 69.8514 0 45C0 20.1486 20.1486 0 45 0C69.8566 0 90 20.1486 90 45Z" fill="#2081E2"/>
        <path d="M22.2011 46.512L22.3953 46.2069L34.1016 27.8939C34.2726 27.6257 34.6749 27.6535 34.8043 27.9447C36.76 32.3277 38.4475 37.7786 37.6569 41.1721C37.3194 42.5683 36.3948 44.4593 35.3545 46.2069C35.2204 46.4612 35.0725 46.7109 34.9153 46.9513C34.8413 47.0622 34.7165 47.127 34.5824 47.127H22.5432C22.2196 47.127 22.0301 46.7756 22.2011 46.512Z" fill="white"/>
        <path d="M74.38 49.9149V52.8137C74.38 52.9801 74.2783 53.1281 74.1304 53.1928C73.2242 53.5812 70.1219 55.0052 68.832 56.799C65.5402 61.3807 63.0251 67.932 57.4031 67.932H33.949C25.6362 67.932 18.9 61.1727 18.9 52.8322V52.564C18.9 52.3421 19.0803 52.1618 19.3023 52.1618H32.377C32.6359 52.1618 32.8255 52.4022 32.8024 52.6565C32.7099 53.5072 32.8671 54.3764 33.2693 55.167C34.0461 56.7435 35.655 57.7283 37.3934 57.7283H43.866V52.675H37.4673C37.1391 52.675 36.9449 52.2959 37.1345 52.0277C37.2038 51.9214 37.2824 51.8104 37.3656 51.6856C37.9713 50.8257 38.8358 49.4895 39.6958 47.9684C40.2829 46.9421 40.8516 45.8463 41.3093 44.746C41.4018 44.5472 41.4758 44.3438 41.5497 44.1449C41.6746 43.7936 41.804 43.4653 41.8965 43.1371C41.9889 42.8597 42.0629 42.5684 42.1369 42.2956C42.3542 41.3617 42.4467 40.3723 42.4467 39.3459C42.4467 38.9437 42.4282 38.523 42.3912 38.1207C42.3727 37.6815 42.3172 37.2423 42.2617 36.8031C42.2247 36.4147 42.1554 36.031 42.0814 35.6288C41.9889 35.0416 41.8595 34.4591 41.7115 33.8719L41.6607 33.65C41.5497 33.2478 41.4573 32.864 41.3278 32.4618C40.9626 31.1996 40.5418 29.9698 40.098 28.8186C39.9362 28.3609 39.7512 27.9217 39.5663 27.4825C39.2935 26.8213 39.0161 26.2203 38.7619 25.6516C38.6324 25.3927 38.5214 25.1569 38.4105 24.9165C38.2857 24.6437 38.1562 24.371 38.0268 24.112C37.9343 23.9132 37.8279 23.7283 37.754 23.5434L36.9634 22.0824C36.8524 21.8836 37.0374 21.6478 37.2546 21.7079L42.2016 23.0487H42.2155C42.2247 23.0487 42.2294 23.0533 42.234 23.0533L42.8859 23.2336L43.6025 23.437L43.866 23.511V20.5706C43.866 19.1512 45.0034 18 46.4089 18C47.1116 18 47.7496 18.2866 48.2073 18.7536C48.665 19.2206 48.9517 19.8586 48.9517 20.5706V24.935L49.4787 25.0829C49.5204 25.0968 49.562 25.1153 49.599 25.143C49.7284 25.2401 49.9133 25.3835 50.1491 25.5591C50.3341 25.7071 50.5329 25.8874 50.7733 26.0723C51.2495 26.4561 51.8181 26.9508 52.4423 27.5194C52.6087 27.6628 52.7706 27.8107 52.9185 27.9587C53.723 28.7076 54.6245 29.5861 55.4845 30.557C55.7249 30.8297 55.9607 31.1071 56.2011 31.3984C56.4415 31.6943 56.6958 31.9856 56.9177 32.2769C57.209 32.6652 57.5233 33.0674 57.7961 33.4882C57.9256 33.687 58.0735 33.8904 58.1984 34.0892C58.5497 34.6209 58.8595 35.1711 59.1554 35.7212C59.2802 35.9755 59.4097 36.2529 59.5206 36.5257C59.8489 37.2608 60.1078 38.0098 60.2742 38.7588C60.3251 38.9206 60.3621 39.0963 60.3806 39.2535V39.2904C60.436 39.5124 60.4545 39.7482 60.473 39.9886C60.547 40.756 60.51 41.5235 60.3436 42.2956C60.2742 42.6239 60.1818 42.9336 60.0708 43.2619C59.9598 43.5763 59.8489 43.9045 59.7056 44.2143C59.4282 44.8569 59.0999 45.4996 58.7115 46.1006C58.5867 46.3225 58.4388 46.5583 58.2908 46.7802C58.129 47.016 57.9626 47.238 57.8146 47.4553C57.6112 47.7327 57.3939 48.0239 57.172 48.2828C56.9732 48.5556 56.7697 48.8284 56.5478 49.0688C56.2381 49.434 55.9422 49.7808 55.6324 50.1137C55.4475 50.331 55.2487 50.5529 55.0452 50.7517C54.8464 50.9736 54.643 51.1724 54.4581 51.3573C54.1483 51.6671 53.8894 51.9075 53.6721 52.1063L53.1635 52.5733C53.0896 52.638 52.9925 52.675 52.8908 52.675H48.9517V57.7283H53.9079C55.0175 57.7283 56.0716 57.3353 56.9223 56.6141C57.2136 56.3598 58.485 55.2594 59.9876 53.5997C60.0384 53.5442 60.1032 53.5026 60.1771 53.4841L73.8668 49.5265C74.1211 49.4525 74.38 49.6467 74.38 49.9149Z" fill="white"/>
    </symbol>
    <symbol viewBox="0 0 512.002 512.002" style="enable-background:new 0 0 512.002 512.002;" id="twitter">
        <path style="fill:#73A1FB;" d="M500.398,94.784c-8.043,3.567-16.313,6.578-24.763,9.023c10.004-11.314,17.631-24.626,22.287-39.193  c1.044-3.265-0.038-6.839-2.722-8.975c-2.681-2.137-6.405-2.393-9.356-0.644c-17.945,10.643-37.305,18.292-57.605,22.764  c-20.449-19.981-48.222-31.353-76.934-31.353c-60.606,0-109.913,49.306-109.913,109.91c0,4.773,0.302,9.52,0.9,14.201  c-75.206-6.603-145.124-43.568-193.136-102.463c-1.711-2.099-4.347-3.231-7.046-3.014c-2.7,0.211-5.127,1.734-6.491,4.075  c-9.738,16.709-14.886,35.82-14.886,55.265c0,26.484,9.455,51.611,26.158,71.246c-5.079-1.759-10.007-3.957-14.711-6.568  c-2.525-1.406-5.607-1.384-8.116,0.054c-2.51,1.439-4.084,4.084-4.151,6.976c-0.012,0.487-0.012,0.974-0.012,1.468  c0,39.531,21.276,75.122,53.805,94.52c-2.795-0.279-5.587-0.684-8.362-1.214c-2.861-0.547-5.802,0.456-7.731,2.638  c-1.932,2.18-2.572,5.219-1.681,7.994c12.04,37.591,43.039,65.24,80.514,73.67c-31.082,19.468-66.626,29.665-103.939,29.665  c-7.786,0-15.616-0.457-23.279-1.364c-3.807-0.453-7.447,1.795-8.744,5.416c-1.297,3.622,0.078,7.66,3.316,9.736  c47.935,30.735,103.361,46.98,160.284,46.98c111.903,0,181.907-52.769,220.926-97.037c48.657-55.199,76.562-128.261,76.562-200.451  c0-3.016-0.046-6.061-0.139-9.097c19.197-14.463,35.724-31.967,49.173-52.085c2.043-3.055,1.822-7.094-0.545-9.906  C507.7,94.204,503.76,93.294,500.398,94.784z"/>
        <g>
        </g>
        <g>
        </g>
        <g>
        </g>
        <g>
        </g>
        <g>
        </g>
        <g>
        </g>
        <g>
        </g>
        <g>
        </g>
        <g>
        </g>
        <g>
        </g>
        <g>
        </g>
        <g>
        </g>
        <g>
        </g>
        <g>
        </g>
        <g>
        </g>
    </symbol>
    <symbol viewBox="0 0 1024 1024" id="discord">
        <circle cx="512" cy="512" r="512" style="fill:#5865f2"/>
        <path d="M689.43 349a422.21 422.21 0 0 0-104.22-32.32 1.58 1.58 0 0 0-1.68.79 294.11 294.11 0 0 0-13 26.66 389.78 389.78 0 0 0-117.05 0 269.75 269.75 0 0 0-13.18-26.66 1.64 1.64 0 0 0-1.68-.79A421 421 0 0 0 334.44 349a1.49 1.49 0 0 0-.69.59c-66.37 99.17-84.55 195.9-75.63 291.41a1.76 1.76 0 0 0 .67 1.2 424.58 424.58 0 0 0 127.85 64.63 1.66 1.66 0 0 0 1.8-.59 303.45 303.45 0 0 0 26.15-42.54 1.62 1.62 0 0 0-.89-2.25 279.6 279.6 0 0 1-39.94-19 1.64 1.64 0 0 1-.16-2.72c2.68-2 5.37-4.1 7.93-6.22a1.58 1.58 0 0 1 1.65-.22c83.79 38.26 174.51 38.26 257.31 0a1.58 1.58 0 0 1 1.68.2c2.56 2.11 5.25 4.23 8 6.24a1.64 1.64 0 0 1-.14 2.72 262.37 262.37 0 0 1-40 19 1.63 1.63 0 0 0-.87 2.28 340.72 340.72 0 0 0 26.13 42.52 1.62 1.62 0 0 0 1.8.61 423.17 423.17 0 0 0 128-64.63 1.64 1.64 0 0 0 .67-1.18c10.68-110.44-17.88-206.38-75.7-291.42a1.3 1.3 0 0 0-.63-.63zM427.09 582.85c-25.23 0-46-23.16-46-51.6s20.38-51.6 46-51.6c25.83 0 46.42 23.36 46 51.6.02 28.44-20.37 51.6-46 51.6zm170.13 0c-25.23 0-46-23.16-46-51.6s20.38-51.6 46-51.6c25.83 0 46.42 23.36 46 51.6.01 28.44-20.17 51.6-46 51.6z" style="fill:#fff"/>
    </symbol>


</svg>
